<svg height="511pt" viewBox="1 0 511.99996 511" width="511pt" xmlns="http://www.w3.org/2000/svg" xmlns:xlink="http://www.w3.org/1999/xlink"><linearGradient id="linear0" gradientUnits="userSpaceOnUse" x1="255.999957465" x2="255.999957465" y1=".499580565" y2="511.240870365"><stop offset="0" stop-color="#2af598"/><stop offset="1" stop-color="#009efd"/></linearGradient><path d="m164.59375 511.242188c-42.167969 0-84.339844-16.054688-116.441406-48.15625-64.121094-64.121094-64.203125-168.402344-.253906-232.628907 58.878906-63.113281 202.25-188.910156 208.332031-194.238281l40.402343-35.414062-16.1875 115.140624 231.554688-115.445312-115.597656 228.496094 114.796875-16.277344-33.972657 40.046875c-5.039062 5.941406-124.03125 145.976563-196.609374 210.734375-32.046876 31.824219-74.039063 47.742188-116.023438 47.742188zm77.476562-409.089844c-48.132812 43.046875-126.761718 114.519531-165.199218 155.769531l-.488282.507813c-48.640624 48.640624-48.640624 127.785156 0 176.425781 48.640626 48.644531 127.785157 48.644531 176.425782 0l.839844-.792969c47.042968-41.886719 116.839843-119.554688 158.386718-166.960938l-85.800781 12.167969 95.757813-189.289062-191.644532 95.546875zm-77.476562 326.328125c-45.125 0-81.835938-36.710938-81.835938-81.835938s36.710938-81.839843 81.835938-81.839843 81.839844 36.714843 81.839844 81.839843-36.714844 81.835938-81.839844 81.835938zm0-123.753907c-23.113281 0-41.917969 18.804688-41.917969 41.917969s18.804688 41.917969 41.917969 41.917969 41.917969-18.804688 41.917969-41.917969-18.804688-41.917969-41.917969-41.917969zm0 0" fill="url(#linear0)"/></svg>